#tb 0: 1/44100
#media_type 0: audio
#codec_id 0: pcm_s16le
#sample_rate 0: 44100
#channel_layout_name 0: stereo
0,          0,          0,     3655,    14620, 0x695322dc
0,       3655,       3655,     4096,    16384, 0xe4d2e05a
0,       7751,       7751,     4096,    16384, 0xe4d2e05a
0,      11847,      11847,     4096,    16384, 0xe4d2e05a
0,      15943,      15943,     4096,    16384, 0xe4d2e05a
0,      20039,      20039,     4096,    16384, 0xe4d2e05a
0,      24135,      24135,     4096,    16384, 0xe4d2e05a
0,      28231,      28231,     4096,    16384, 0xe4d2e05a
0,      32327,      32327,     4096,    16384, 0xe4d2e05a
0,      36423,      36423,     4096,    16384, 0xe4d2e05a
0,      40519,      40519,     4096,    16384, 0xe4d2e05a
0,      44615,      44615,     4096,    16384, 0xe4d2e05a
0,      48711,      48711,     4096,    16384, 0xe4d2e05a
0,      52807,      52807,     4096,    16384, 0xe4d2e05a
0,      56903,      56903,     4096,    16384, 0xe4d2e05a
0,      60999,      60999,     4096,    16384, 0xe4d2e05a
0,      65095,      65095,     4096,    16384, 0xe4d2e05a
0,      69191,      69191,     4096,    16384, 0xe4d2e05a
0,      73287,      73287,     4096,    16384, 0xe4d2e05a
0,      77383,      77383,     4096,    16384, 0xe4d2e05a
0,      81479,      81479,     4096,    16384, 0xe4d2e05a
0,      85575,      85575,     4096,    16384, 0xe4d2e05a
0,      89671,      89671,     4096,    16384, 0xe4d2e05a
0,      93767,      93767,     4096,    16384, 0x2d3b5125
0,      97863,      97863,     4096,    16384, 0x243151de
0,     101959,     101959,     4096,    16384, 0x9df41f6c
0,     106055,     106055,     4096,    16384, 0x087b7ad9
0,     110151,     110151,     4096,    16384, 0x6f969388
0,     114247,     114247,     4096,    16384, 0x6f17c2c1
0,     118343,     118343,     4096,    16384, 0x6f17c2c1
0,     122439,     122439,     4096,    16384, 0x6f17c2c1
0,     126535,     126535,     4096,    16384, 0x6f17c2c1
0,     130631,     130631,     4096,    16384, 0x137b2e4a
0,     134727,     134727,     4096,    16384, 0x6c638594
0,     138823,     138823,     4096,    16384, 0x4144e17f
0,     142919,     142919,     4096,    16384, 0xfd3ec2d8
0,     147015,     147015,     4096,    16384, 0xdf815697
0,     151111,     151111,     4096,    16384, 0xc15219f9
0,     155207,     155207,     4096,    16384, 0x626604ae
0,     159303,     159303,     4096,    16384, 0xfd4c69d4
0,     163399,     163399,     4096,    16384, 0x99141163
0,     167495,     167495,     4096,    16384, 0xebd0d204
0,     171591,     171591,     4096,    16384, 0xa03d59dc
0,     175687,     175687,     4096,    16384, 0x71235357
0,     179783,     179783,     4096,    16384, 0xdeef5c6d
0,     183879,     183879,     4096,    16384, 0xfefb1bb3
0,     187975,     187975,     4096,    16384, 0x3b64cf1d
0,     192071,     192071,     4096,    16384, 0xb2db5532
0,     196167,     196167,     4096,    16384, 0xd0ff4e3a
0,     200263,     200263,     4096,    16384, 0x30d86bb0
0,     204359,     204359,     4096,    16384, 0x92ce1a96
0,     208455,     208455,     4096,    16384, 0x31326bee
0,     212551,     212551,     4096,    16384, 0xbdf4056b
0,     216647,     216647,     4096,    16384, 0xd442103b
0,     220743,     220743,     4096,    16384, 0x04f58c72
0,     224839,     224839,     4096,    16384, 0xd0521187
0,     228935,     228935,     4096,    16384, 0x35aa791a
0,     233031,     233031,     4096,    16384, 0xf872df8b
0,     237127,     237127,     4096,    16384, 0x950199d8
0,     241223,     241223,     4096,    16384, 0x55b50809
0,     245319,     245319,     4096,    16384, 0x77909b73
0,     249415,     249415,     4096,    16384, 0xc5b7f111
0,     253511,     253511,     4096,    16384, 0xa3fa936f
0,     257607,     257607,     4096,    16384, 0x4a5af904
0,     261703,     261703,     2456,     9824, 0x9f5469c7
0,     264159,     264159,      441,     1764, 0x5bf19086
